<svg version="1.1" preserveAspectRatio="none" xmlns="http://www.w3.org/2000/svg" width="500" height="500" viewBox="0 0 500 500"><rect width="100%" height="100%" fill="#EDECEB" fill-opacity="1"/><svg viewBox="-25.1526 -19.9656 450.3052 423.6882" width="333" height="313.3167696042595" x="83.5px" y="93.3416px" xmlns="http://www.w3.org/2000/svg" xmlns:xlink="http://www.w3.org/1999/xlink" preserveAspectRatio="none"><defs></defs><style>.companyName {fill:#5B4B42;fill-opacity:1;}.icon1 {fill:#B3D0D9;fill-opacity:1;}.icon2 {fill:#99A08E;fill-opacity:1;}.icon3 {fill:#DFC4B5;fill-opacity:1;}.icon3-str {stroke:#DFC4B5;stroke-opacity:1;}.text {fill:#5D4B40;fill-opacity:1;}</style><g opacity="1" transform="rotate(0 60 -19.9656)">
<svg width="280" height="311.6882" x="60" y="-19.9656" version="1.1" preserveAspectRatio="none" viewBox="5.0999979972839355 2 53.900001525878906 60">
  <g transform="matrix(1 0 0 1 0 0)" class="icon1"><g><path d="M55.4,13.3h-0.3v-2c0-1-0.8-1.8-1.8-1.8h-4.6c-1,0-1.8,0.8-1.8,1.8v2h-1v-4c0-1.3-1.1-2.4-2.4-2.4h-1V3.9   c0-1-0.8-1.9-1.9-1.9h-4.4c-1,0-1.9,0.8-1.9,1.9v2.9h-0.2c-1.3,0-2.4,1.1-2.4,2.4v4.1c-1.7,0.3-3,1.7-3,3.5v12.6   c-0.4,0-0.8,0.1-1.2,0.2c-1.7-3.4-5.1-5.6-8.9-5.6c-5.5,0-10,4.5-10,10c0,0.9,0.1,1.8,0.4,2.7c-2.3,1-3.9,3.4-3.9,6   c0,3.6,2.9,6.5,6.5,6.5c1.2,0,2.3-0.3,3.3-0.9c0.6,0.7,1.2,1.2,2,1.7c-0.3,0.7-0.4,1.4-0.4,2.1c0,3.1,2.4,5.6,5.4,5.9   c0.8,2.4,3.1,4,5.6,4c1,0,1.9-0.2,2.7-0.7c0.6,0.4,1.3,0.7,2.1,0.7h23.1c2,0,3.6-1.6,3.6-3.6V16.8C58.9,14.9,57.3,13.3,55.4,13.3z    M49,11.5h4.1v1.7H49V11.5z M36.4,4h4.1v2.8h-4.1V4z M33.7,9.2c0-0.2,0.2-0.4,0.4-0.4h0.2h8.1h1C43.8,8.8,44,9,44,9.2v4H33.7V9.2z    M27.5,60c-1.9,0-3.5-1.3-3.9-3.2c-0.1-0.5-0.5-0.8-1-0.8c0,0,0,0,0,0c0,0-0.1,0-0.1,0c-2.2,0-4-1.8-4-4c0-0.7,0.2-1.4,0.6-2   c0.1-0.2,0.2-0.5,0.1-0.8s-0.3-0.5-0.6-0.6c-1.1-0.4-2-1.2-2.6-2.2c-0.2-0.2-0.4-0.4-0.7-0.5c-0.3,0-0.6,0-0.8,0.2   c-0.8,0.7-1.8,1.1-2.9,1.1c-2.5,0-4.5-2-4.5-4.5c0-2,1.4-3.8,3.4-4.4c0.3-0.1,0.5-0.3,0.6-0.5c0.1-0.3,0.1-0.6,0-0.8   C10.7,36,10.5,35,10.5,34c0-4.4,3.6-8,8-8c3.3,0,6.3,2.1,7.4,5.1c0.2,0.5,0.8,0.8,1.3,0.6c0.6-0.2,1.3-0.3,1.9-0.3   c3.1,0,5.7,2.6,5.7,5.7c0,1.6-0.7,3.2-2,4.3c-0.2,0.2-0.3,0.5-0.3,0.8c0,0.3,0.1,0.6,0.4,0.8c1.1,0.9,1.7,2.2,1.7,3.5   c0,2.4-1.9,4.4-4.3,4.5c-0.4,0-0.8,0.3-0.9,0.7s0,0.8,0.4,1.1c1,0.7,1.7,1.9,1.7,3.2C31.4,58.2,29.7,60,27.5,60z M56.9,58.4   c0,0.9-0.7,1.6-1.6,1.6h-1.7V45.4c0-0.6-0.4-1-1-1s-1,0.4-1,1V60h-6.8V31.9c0-0.6-0.4-1-1-1s-1,0.4-1,1V60H32.3c-0.1,0-0.2,0-0.3,0   c0.9-1,1.5-2.4,1.5-3.9c0-1.2-0.4-2.4-1.1-3.4c2.5-0.9,4.3-3.3,4.3-6.1c0-1.6-0.6-3.2-1.7-4.4c1.2-1.4,1.9-3.2,1.9-5   c0-3.7-2.6-6.8-6.1-7.5V16.8c0-0.9,0.7-1.6,1.6-1.6h2.6v14.7c0,0.6,0.4,1,1,1s1-0.4,1-1V15.3H46h1h8.1h0.3c0.9,0,1.6,0.7,1.6,1.6   V58.4z"></path><path d="M18.6,27.9c-3.2,0-5.9,2.6-5.9,5.9c0,0.6,0.4,1,1,1s1-0.4,1-1c0-2.1,1.7-3.9,3.9-3.9c2.1,0,3.9,1.7,3.9,3.9   c0,0.6,0.4,1,1,1s1-0.4,1-1C24.5,30.5,21.8,27.9,18.6,27.9z"></path><path d="M12.2,44.1c-1.1,0-1.9-0.9-1.9-1.9c0-0.6-0.4-1-1-1s-1,0.4-1,1c0,2.2,1.8,3.9,3.9,3.9c0.6,0,1-0.4,1-1S12.7,44.1,12.2,44.1   z"></path><path d="M28.9,34.8c1.3,0,2.4,1.1,2.4,2.4c0,0.6,0.4,1,1,1s1-0.4,1-1c0-2.4-2-4.4-4.4-4.4c-0.6,0-1,0.4-1,1S28.3,34.8,28.9,34.8z"></path><path d="M32.9,45.5c0-0.6-0.4-1-1-1s-1,0.4-1,1c0,1.2-0.9,2.1-2.1,2.1c-0.6,0-1,0.4-1,1s0.4,1,1,1C31.1,49.6,32.9,47.7,32.9,45.5z"></path></g></g>
</svg>
</g><g opacity="1" transform="rotate(0 146.8492 381.7226)">
<svg width="106.3017" height="22" x="146.8492" y="381.7226" version="1.1" preserveAspectRatio="none" viewBox="3.48 -28.98 141.36 29.26">
  <g transform="matrix(1 0 0 1 0 0)" class="text"><path id="id-6izo4zJp6" d="M13.62 0L3.48 0L3.48-28.66L12.62-28.66Q15.26-28.66 17.17-28.14Q19.08-27.62 20.31-26.66Q21.54-25.70 22.13-24.31Q22.72-22.92 22.72-21.18L22.72-21.18Q22.72-20.12 22.39-19.14Q22.06-18.16 21.39-17.32Q20.72-16.48 19.71-15.82Q18.70-15.16 17.34-14.74L17.34-14.74Q20.48-14.12 22.08-12.48Q23.68-10.84 23.68-8.16L23.68-8.16Q23.68-6.34 23.01-4.84Q22.34-3.34 21.05-2.26Q19.76-1.18 17.89-0.59Q16.02 0 13.62 0L13.62 0ZM13.54-13.06L7.36-13.06L7.36-3.08L13.56-3.08Q15.22-3.08 16.41-3.46Q17.60-3.84 18.37-4.53Q19.14-5.22 19.50-6.17Q19.86-7.12 19.86-8.26L19.86-8.26Q19.86-10.48 18.29-11.77Q16.72-13.06 13.54-13.06L13.54-13.06ZM7.36-25.60L7.36-15.82L12.48-15.82Q14.12-15.82 15.32-16.18Q16.52-16.54 17.31-17.18Q18.10-17.82 18.48-18.73Q18.86-19.64 18.86-20.72L18.86-20.72Q18.86-23.24 17.34-24.42Q15.82-25.60 12.62-25.60L12.62-25.60L7.36-25.60Z M38.60-20.58L38.60-20.58Q40.82-20.58 42.61-19.84Q44.40-19.10 45.65-17.74Q46.90-16.38 47.57-14.45Q48.24-12.52 48.24-10.14L48.24-10.14Q48.24-7.74 47.57-5.82Q46.90-3.90 45.65-2.54Q44.40-1.18 42.61-0.45Q40.82 0.28 38.60 0.28L38.60 0.28Q36.38 0.28 34.59-0.45Q32.80-1.18 31.54-2.54Q30.28-3.90 29.60-5.82Q28.92-7.74 28.92-10.14L28.92-10.14Q28.92-12.52 29.60-14.45Q30.28-16.38 31.54-17.74Q32.80-19.10 34.59-19.84Q36.38-20.58 38.60-20.58ZM38.60-2.50L38.60-2.50Q41.60-2.50 43.08-4.51Q44.56-6.52 44.56-10.12L44.56-10.12Q44.56-13.74 43.08-15.76Q41.60-17.78 38.60-17.78L38.60-17.78Q37.08-17.78 35.96-17.26Q34.84-16.74 34.09-15.76Q33.34-14.78 32.97-13.35Q32.60-11.92 32.60-10.12L32.60-10.12Q32.60-8.32 32.97-6.90Q33.34-5.48 34.09-4.51Q34.84-3.54 35.96-3.02Q37.08-2.50 38.60-2.50Z M63.34-28.98L63.34-28.98Q65.16-28.98 66.74-28.44Q68.32-27.90 69.47-26.87Q70.62-25.84 71.28-24.36Q71.94-22.88 71.94-21L71.94-21Q71.94-19.40 71.46-18.04Q70.98-16.68 70.16-15.43Q69.34-14.18 68.27-13.01Q67.20-11.84 66-10.62L66-10.62L58.46-2.90Q59.26-3.12 60.08-3.25Q60.90-3.38 61.66-3.38L61.66-3.38L71.26-3.38Q71.84-3.38 72.18-3.04Q72.52-2.70 72.52-2.16L72.52-2.16L72.52 0L53.40 0L53.40-1.22Q53.40-1.60 53.55-2Q53.70-2.40 54.04-2.74L54.04-2.74L63.22-11.96Q64.36-13.12 65.30-14.19Q66.24-15.26 66.91-16.34Q67.58-17.42 67.94-18.53Q68.30-19.64 68.30-20.90L68.30-20.90Q68.30-22.16 67.90-23.11Q67.50-24.06 66.80-24.68Q66.10-25.30 65.16-25.61Q64.22-25.92 63.14-25.92L63.14-25.92Q62.06-25.92 61.14-25.60Q60.22-25.28 59.51-24.71Q58.80-24.14 58.31-23.36Q57.82-22.58 57.62-21.64L57.62-21.64Q57.46-21.06 57.14-20.80Q56.82-20.54 56.30-20.54L56.30-20.54Q56.20-20.54 56.09-20.55Q55.98-20.56 55.84-20.58L55.84-20.58L53.98-20.90Q54.26-22.86 55.06-24.37Q55.86-25.88 57.09-26.90Q58.32-27.92 59.91-28.45Q61.50-28.98 63.34-28.98Z M83.48-28.66L83.48-3.26L95.88-3.26L95.88 0L79.60 0L79.60-28.66L83.48-28.66Z M108.68-20.58L108.68-20.58Q110.90-20.58 112.69-19.84Q114.48-19.10 115.73-17.74Q116.98-16.38 117.65-14.45Q118.32-12.52 118.32-10.14L118.32-10.14Q118.32-7.74 117.65-5.82Q116.98-3.90 115.73-2.54Q114.48-1.18 112.69-0.45Q110.90 0.28 108.68 0.28L108.68 0.28Q106.46 0.28 104.67-0.45Q102.88-1.18 101.62-2.54Q100.36-3.90 99.68-5.82Q99.00-7.74 99.00-10.14L99.00-10.14Q99.00-12.52 99.68-14.45Q100.36-16.38 101.62-17.74Q102.88-19.10 104.67-19.84Q106.46-20.58 108.68-20.58ZM108.68-2.50L108.68-2.50Q111.68-2.50 113.16-4.51Q114.64-6.52 114.64-10.12L114.64-10.12Q114.64-13.74 113.16-15.76Q111.68-17.78 108.68-17.78L108.68-17.78Q107.16-17.78 106.04-17.26Q104.92-16.74 104.17-15.76Q103.42-14.78 103.05-13.35Q102.68-11.92 102.68-10.12L102.68-10.12Q102.68-8.32 103.05-6.90Q103.42-5.48 104.17-4.51Q104.92-3.54 106.04-3.02Q107.16-2.50 108.68-2.50Z M123.88-28.66L144.84-28.66L144.84-27.22Q144.84-26.54 144.42-25.94L144.42-25.94L128.20-3.16L144.56-3.16L144.56 0L123.12 0L123.12-1.52Q123.12-2.12 123.50-2.66L123.50-2.66L139.74-25.50L123.88-25.50L123.88-28.66Z"/></g>
</svg>
</g><g opacity="1" transform="rotate(0 -25.1526 331.7226)">
<svg width="450.3052" height="32" x="-25.1526" y="331.7226" version="1.1" preserveAspectRatio="none" viewBox="2.4 -26.8 382.76000000000005 27.2">
  <g transform="matrix(1 0 0 1 0 0)" class="companyName"><path id="id-D6z1nYkh16" d="M14.08 0L2.40 0L2.40-0.64L5.64-2.24L5.64-24.16L2.40-25.76L2.40-26.40L13.16-26.40Q15.84-26.40 17.98-25.74Q20.12-25.08 21.34-23.78Q22.56-22.48 22.56-20.48L22.56-20.48Q22.56-18.44 21.16-16.74Q19.76-15.04 17.12-14.32L17.12-14.32Q20.76-13.84 22.82-12.10Q24.88-10.36 24.88-7.68L24.88-7.68Q24.88-5.48 23.48-3.74Q22.08-2 19.64-1Q17.20 0 14.08 0L14.08 0ZM12-24.20L12-24.20L9.84-24.20L9.84-14.68L12.20-14.68Q15.04-14.68 16.60-15.92Q18.16-17.16 18.16-19.32L18.16-19.32Q18.16-24.20 12-24.20ZM13.48-12.56L13.48-12.56L9.84-12.56L9.84-2.20L13.76-2.20Q16.84-2.20 18.62-3.66Q20.40-5.12 20.40-7.40L20.40-7.40Q20.40-10.08 18.60-11.32Q16.80-12.56 13.48-12.56Z M40.92 0.40L40.92 0.40Q37.56 0.40 34.96-1.10Q32.36-2.60 30.86-5.22Q29.36-7.84 29.36-11.20L29.36-11.20Q29.36-14.56 30.86-17.20Q32.36-19.84 34.96-21.34Q37.56-22.84 40.92-22.84L40.92-22.84Q44.28-22.84 46.90-21.34Q49.52-19.84 51.02-17.20Q52.52-14.56 52.52-11.20L52.52-11.20Q52.52-7.84 51.02-5.22Q49.52-2.60 46.90-1.10Q44.28 0.40 40.92 0.40ZM41.56-1.60L41.56-1.60Q44.80-1.60 46.64-3.96Q48.48-6.32 48.48-10.20L48.48-10.20Q48.48-13.36 47.46-15.76Q46.44-18.16 44.60-19.50Q42.76-20.84 40.40-20.84L40.40-20.84Q37.20-20.84 35.30-18.50Q33.40-16.16 33.40-12.32L33.40-12.32Q33.40-9.12 34.44-6.72Q35.48-4.32 37.32-2.96Q39.16-1.60 41.56-1.60Z M73.04 0L57.44 0L57.44-1.12Q60.40-3.88 62.44-5.78Q64.48-7.68 65.70-9.06Q66.92-10.44 67.46-11.68Q68-12.92 68-14.40L68-14.40Q68-16 66.98-17.32Q65.96-18.64 63.80-18.64L63.80-18.64Q61.88-18.64 60.66-17.68Q59.44-16.72 58.64-14.92L58.64-14.92L57.28-15.52Q58.60-18.56 60.78-20.08Q62.96-21.60 65.44-21.60L65.44-21.60Q68.88-21.60 70.64-19.76Q72.40-17.92 72.40-15.24L72.40-15.24Q72.40-13.44 71.56-11.96Q70.72-10.48 69.22-9.12Q67.72-7.76 65.78-6.30Q63.84-4.84 61.64-3.04L61.64-3.04L70.80-3.04L72.80-6.92L73.44-6.92L73.04 0Z M98.48 0L78.08 0L78.08-0.64L81.32-2.24L81.32-24.16L78.08-25.76L78.08-26.40L89.16-26.40L89.16-25.76L85.52-24.16L85.52-2.20L95-2.20L97.84-9.08L98.48-9.08L98.48 0Z M115.28 0.40L115.28 0.40Q111.92 0.40 109.32-1.10Q106.72-2.60 105.22-5.22Q103.72-7.84 103.72-11.20L103.72-11.20Q103.72-14.56 105.22-17.20Q106.72-19.84 109.32-21.34Q111.92-22.84 115.28-22.84L115.28-22.84Q118.64-22.84 121.26-21.34Q123.88-19.84 125.38-17.20Q126.88-14.56 126.88-11.20L126.88-11.20Q126.88-7.84 125.38-5.22Q123.88-2.60 121.26-1.10Q118.64 0.40 115.28 0.40ZM115.92-1.60L115.92-1.60Q119.16-1.60 121-3.96Q122.84-6.32 122.84-10.20L122.84-10.20Q122.84-13.36 121.82-15.76Q120.80-18.16 118.96-19.50Q117.12-20.84 114.76-20.84L114.76-20.84Q111.56-20.84 109.66-18.50Q107.76-16.16 107.76-12.32L107.76-12.32Q107.76-9.12 108.80-6.72Q109.84-4.32 111.68-2.96Q113.52-1.60 115.92-1.60Z M152.28 0L133.04 0L133.04-1.08L146.68-24.20L136.72-24.20L134.16-18.92L133.52-18.92L133.52-26.40L151.84-26.40L151.84-25.32L138.16-2.20L149.00-2.20L151.64-7.88L152.28-7.88L152.28 0Z M179.92 0.20L178.20 0.20L169.44-20.64L167.08-21.76L167.08-22.40L176.52-22.40L176.52-21.76L173.72-20.60L179.96-5.48L180.20-5.48L186.36-20.60L183.44-21.76L183.44-22.40L190.84-22.40L190.84-21.76L188.84-20.64L179.92 0.20Z M200.76 0L193.32 0L193.32-0.64L195.36-1.72L204.24-22.60L206.32-22.60L215.12-1.80L217.48-0.64L217.48 0L208.20 0L208.20-0.64L211.00-1.80L208.52-7.72L200.28-7.72L197.84-1.76L200.76-0.64L200.76 0ZM204.36-17.68L201.12-9.72L207.68-9.72L204.36-17.68Z M231.32 0L221.08 0L221.08-0.64L224.00-1.96L224.00-20.44L221.08-21.76L221.08-22.40L230.72-22.40Q235.20-22.40 237.52-20.86Q239.84-19.32 239.84-16.08L239.84-16.08Q239.84-14.08 238.60-12.60Q237.36-11.12 235.18-10.34Q233.00-9.56 230.16-9.56L230.16-9.56L227.96-9.56L227.96-1.96L231.32-0.64L231.32 0ZM229.68-20.40L227.96-20.40L227.96-11.52L229.92-11.52Q232.60-11.52 234.16-12.70Q235.72-13.88 235.72-16L235.72-16Q235.72-18.36 234.14-19.38Q232.56-20.40 229.68-20.40L229.68-20.40Z M262.76 0L244.16 0L244.16-0.64L247.04-1.96L247.04-20.44L244.16-21.76L244.16-22.40L261.76-22.40L261.76-16.64L261.12-16.64L259.04-20.40L251.00-20.40L251.00-12.60L256.84-12.60L258.20-15.36L258.84-15.36L258.84-7.88L258.20-7.88L256.84-10.60L251.00-10.60L251.00-2L259.92-2L262.12-6.52L262.76-6.52L262.76 0Z M276.04 0.40L276.04 0.40Q273.52 0.40 271.74-0.08Q269.96-0.56 268.08-1.48L268.08-1.48L267.68-8.08L268.32-8.08L270.44-3.72Q271.84-2.56 273.20-2.04Q274.56-1.52 275.92-1.52L275.92-1.52Q278.24-1.52 279.58-2.72Q280.92-3.92 280.92-6L280.92-6Q280.92-7.64 280.18-8.62Q279.44-9.60 277.98-10.38Q276.52-11.16 274.40-12.20L274.40-12.20Q271.56-13.56 270.04-15.06Q268.52-16.56 268.52-19.28L268.52-19.28Q268.52-20.72 269.22-22.06Q269.92-23.40 271.12-24.46Q272.32-25.52 273.80-26.16Q275.28-26.80 276.88-26.80L276.88-26.80Q278.76-26.80 280.40-26.36Q282.04-25.92 283.64-25.08L283.64-25.08L284.04-18.68L283.40-18.68L281.32-22.96Q280.04-23.96 279.00-24.40Q277.96-24.84 276.64-24.84L276.64-24.84Q274.92-24.84 273.78-23.68Q272.64-22.52 272.64-20.76L272.64-20.76Q272.64-18.80 273.86-17.68Q275.08-16.56 277.80-15.28L277.80-15.28Q280.20-14.12 281.78-13.06Q283.36-12 284.12-10.68Q284.88-9.36 284.88-7.32L284.88-7.32Q284.88-5.44 284.08-4Q283.28-2.56 281.96-1.58Q280.64-0.60 279.10-0.10Q277.56 0.40 276.04 0.40Z M305 0L293.80 0L293.80-0.64L297.40-1.96L297.40-20.40L291.52-20.40L289.40-15.52L288.76-15.52L288.76-22.40L310.04-22.40L310.04-15.52L309.40-15.52L307.24-20.40L301.36-20.40L301.36-1.96L305-0.64L305 0Z M325.92 0.40L325.92 0.40Q322.56 0.40 319.96-1.10Q317.36-2.60 315.86-5.22Q314.36-7.84 314.36-11.20L314.36-11.20Q314.36-14.56 315.86-17.20Q317.36-19.84 319.96-21.34Q322.56-22.84 325.92-22.84L325.92-22.84Q329.28-22.84 331.90-21.34Q334.52-19.84 336.02-17.20Q337.52-14.56 337.52-11.20L337.52-11.20Q337.52-7.84 336.02-5.22Q334.52-2.60 331.90-1.10Q329.28 0.40 325.92 0.40ZM326.56-1.60L326.56-1.60Q329.80-1.60 331.64-3.96Q333.48-6.32 333.48-10.20L333.48-10.20Q333.48-13.36 332.46-15.76Q331.44-18.16 329.60-19.50Q327.76-20.84 325.40-20.84L325.40-20.84Q322.20-20.84 320.30-18.50Q318.40-16.16 318.40-12.32L318.40-12.32Q318.40-9.12 319.44-6.72Q320.48-4.32 322.32-2.96Q324.16-1.60 326.56-1.60Z M352 0L342.52 0L342.52-0.64L345.44-1.96L345.44-20.44L342.52-21.76L342.52-22.40L352.20-22.40Q355.88-22.40 358.02-20.90Q360.16-19.40 360.16-16.76L360.16-16.76Q360.16-14.84 358.98-13.46Q357.80-12.08 355.60-11.28L355.60-11.28L361.76-1.88L364.40-0.64L364.40 0L358.12 0L351.80-10.20L349.36-10.20L349.36-2L352-0.64L352 0ZM351.24-20.44L351.24-20.44L349.36-20.44L349.36-12.16L351.40-12.16Q353.56-12.16 354.80-13.28Q356.04-14.40 356.04-16.32L356.04-16.32Q356.04-18.36 354.78-19.40Q353.52-20.44 351.24-20.44Z M385.16 0L366.56 0L366.56-0.64L369.44-1.96L369.44-20.44L366.56-21.76L366.56-22.40L384.16-22.40L384.16-16.64L383.52-16.64L381.44-20.40L373.40-20.40L373.40-12.60L379.24-12.60L380.60-15.36L381.24-15.36L381.24-7.88L380.60-7.88L379.24-10.60L373.40-10.60L373.40-2L382.32-2L384.52-6.52L385.16-6.52L385.16 0Z"/></g>
</svg>
</g></svg></svg>