<svg version="1.1" preserveAspectRatio="none" xmlns="http://www.w3.org/2000/svg" width="500" height="500" viewBox="0 0 500 500"><rect width="100%" height="100%" fill="#0B123F" fill-opacity="1"/><svg viewBox="-7.48 125.6667 439.4701 129.2302" width="333" height="97.9216938763297" x="83.5px" y="201.0392px" xmlns="http://www.w3.org/2000/svg" xmlns:xlink="http://www.w3.org/1999/xlink" preserveAspectRatio="none"><defs></defs><style>.companyName {fill:#FFFFFF;fill-opacity:1;}.companyName-floo {flood-color:#FFFFFF;flood-opacity:1;}.icon3 {fill:#2317FF;fill-opacity:1;}.icon3-floo {flood-color:#2317FF;flood-opacity:1;}.icon3-str {stroke:#2317FF;stroke-opacity:1;}.shape-floo {flood-color:#FF8000;flood-opacity:1;}.text {fill:#F3F3F3;fill-opacity:1;}</style><defs>
      <filter
        x="-4.48"
        y="125.6667"
        width="433.4701"
        height="106"
        id="RWrrEA-PR"
        filterUnits="userSpaceOnUse"
        primitiveUnits="userSpaceOnUse"
        color-interpolation-filters="sRGB">
        
    <feGaussianBlur in="SourceGraphic" stdDeviation="6"/>
    <feOffset dx="0" dy="-8" result="jJXMUg-RT-B"/>
    <feFlood flood-color="#2317FF" flood-opacity="1" in="jJXMUg-RT-B" />
    <feComposite  in2="jJXMUg-RT-B" operator="in" result="LdkFMEiRzrU"/><feMerge result="rAuq9cvKX-B"><feMergeNode in="LdkFMEiRzrU" /><feMergeNode in="SourceGraphic" /></feMerge><feGaussianBlur  result="nHGEzLmB8HZ" stdDeviation="7" />
      </filter>
      <filter
        x="-7.48"
        y="142.8969"
        width="439.4701"
        height="112"
        id="ikYEXSHZT"
        filterUnits="userSpaceOnUse"
        primitiveUnits="userSpaceOnUse"
        color-interpolation-filters="sRGB">
        
    <feGaussianBlur in="SourceGraphic" stdDeviation="7"/>
    <feOffset dx="0" dy="8.230244223212566" result="o-csPDD6zDd"/>
    <feFlood flood-color="#FF8000" flood-opacity="1" in="o-csPDD6zDd" />
    <feComposite  in2="o-csPDD6zDd" operator="in" result="Lx13fvxMtkm"/><feMerge result="gOgf43MXw-c"><feMergeNode in="Lx13fvxMtkm" /><feMergeNode in="SourceGraphic" /></feMerge><feGaussianBlur  result="Ad0KU8js3qc" stdDeviation="7" />
      </filter>
      <filter
        x="16.52"
        y="154.6667"
        width="391.4701"
        height="64"
        id="tUk6sjh6M"
        filterUnits="userSpaceOnUse"
        primitiveUnits="userSpaceOnUse"
        color-interpolation-filters="sRGB">
        
    <feGaussianBlur in="SourceGraphic" stdDeviation="6"/>
    <feOffset dx="0" dy="0" result="-zlpkv936iX"/>
    <feFlood flood-color="#FFFFFF" flood-opacity="1" in="-zlpkv936iX" />
    <feComposite  in2="-zlpkv936iX" operator="in" result="E5zOXd-ii0n"/><feMerge result="p9I8JGzYCmH"><feMergeNode in="E5zOXd-ii0n" /><feMergeNode in="SourceGraphic" /></feMerge>
      </filter></defs><g opacity="1" transform="rotate(0 167.2593 224.6667)">
<svg width="89.9916" height="16" x="167.2593" y="224.6667" version="1.1" preserveAspectRatio="none" viewBox="3.24 -26.8 152.52 27.12">
  <g transform="matrix(1 0 0 1 0 0)" class="text"><path id="id-6izo4zJp6" d="M23.48-19.48L23.48-19.48Q23.48-15.12 19.92-13.52L19.92-13.52Q23.20-12.44 24.40-9.56L24.40-9.56Q24.84-8.44 24.84-6.96L24.84-6.96Q24.84-2.16 19.76-0.56L19.76-0.56Q18.08 0 15.80 0L15.80 0L3.24 0L3.24-26.48L15.12-26.48Q19.40-26.48 21.64-24.16L21.64-24.16Q23.48-22.32 23.48-19.48ZM6.24-23.64L6.24-14.64L15.12-14.64Q18.80-14.64 20.04-17.16L20.04-17.16Q20.48-18.04 20.48-19.06Q20.48-20.08 20.20-20.86Q19.92-21.64 19.32-22.24L19.32-22.24Q18-23.64 15.44-23.64L15.44-23.64L6.24-23.64ZM6.24-2.84L16.12-2.84Q18.88-2.84 20.36-3.98Q21.84-5.12 21.84-7.20L21.84-7.20Q21.84-9.20 20.40-10.48L20.40-10.48Q18.80-11.92 15.80-11.92L15.80-11.92L6.24-11.92L6.24-2.84Z M41.76-20.32L41.76-20.32Q46.24-20.32 49.04-17.32L49.04-17.32Q51.68-14.44 51.68-10L51.68-10Q51.68-5.56 49.04-2.68L49.04-2.68Q46.24 0.32 41.76 0.32L41.76 0.32Q37.28 0.32 34.48-2.68L34.48-2.68Q31.84-5.56 31.84-10L31.84-10Q31.84-14.44 34.48-17.32L34.48-17.32Q37.28-20.32 41.76-20.32ZM41.76-2.40L41.76-2.40Q45-2.40 46.88-4.64L46.88-4.64Q48.68-6.76 48.68-10L48.68-10Q48.68-13.24 46.88-15.36L46.88-15.36Q45-17.60 41.76-17.60L41.76-17.60Q38.52-17.60 36.64-15.36L36.64-15.36Q34.84-13.24 34.84-10L34.84-10Q34.84-6.76 36.64-4.64L36.64-4.64Q38.52-2.40 41.76-2.40Z M77-18.88L77-18.88Q77-17.16 75.98-15.56Q74.96-13.96 73.40-12.56Q71.84-11.16 70.02-9.92Q68.20-8.68 66.60-7.50Q65-6.32 63.90-5.18Q62.80-4.04 62.68-2.88L62.68-2.88L76.92-2.88L76.92 0L59.12 0L59.12-1.64Q59.12-3.60 60.22-5.22Q61.32-6.84 62.98-8.26Q64.64-9.68 66.56-10.94Q68.48-12.20 70.14-13.48Q71.80-14.76 72.90-16.08Q74-17.40 74-18.92L74-18.92Q74-21.24 72.46-22.56Q70.92-23.88 68.16-23.88Q65.40-23.88 63.74-22.70Q62.08-21.52 61.76-19.28L61.76-19.28L58.76-19.28Q59.08-22.64 61.68-24.72L61.68-24.72Q64.28-26.80 67.96-26.80L67.96-26.80Q72.16-26.80 74.64-24.56L74.64-24.56Q77-22.40 77-18.88Z M86.28-26.48L89.28-26.48L89.28-2.88L103.72-2.88L103.72 0L86.28 0L86.28-26.48Z M119.20-20.32L119.20-20.32Q123.68-20.32 126.48-17.32L126.48-17.32Q129.12-14.44 129.12-10L129.12-10Q129.12-5.56 126.48-2.68L126.48-2.68Q123.68 0.32 119.20 0.32L119.20 0.32Q114.72 0.32 111.92-2.68L111.92-2.68Q109.28-5.56 109.28-10L109.28-10Q109.28-14.44 111.92-17.32L111.92-17.32Q114.72-20.32 119.20-20.32ZM119.20-2.40L119.20-2.40Q122.44-2.40 124.32-4.64L124.32-4.64Q126.12-6.76 126.12-10L126.12-10Q126.12-13.24 124.32-15.36L124.32-15.36Q122.44-17.60 119.20-17.60L119.20-17.60Q115.96-17.60 114.08-15.36L114.08-15.36Q112.28-13.24 112.28-10L112.28-10Q112.28-6.76 114.08-4.64L114.08-4.64Q115.96-2.40 119.20-2.40Z M155.76-23.60L138.48-2.80L155.76-2.80L155.76 0L134.80 0L134.80-2.84L152.08-23.68L135.04-23.68L135.04-26.48L155.76-26.48L155.76-23.60Z"/></g>
</svg>
</g><g filter="url(#RWrrEA-PR)"><g opacity="1" transform="rotate(0 34.52 172.6667)">
<svg width="355.4701" height="28" x="34.52" y="172.6667" version="1.1" preserveAspectRatio="none" viewBox="4.3359 -30.918 512.0313 40.3321">
  <g transform="matrix(1 0 0 1 0 0)" class="icon3"><path id="id-KYFLWsHjp16" d="M4.34 0L4.34-30.53L20.64-30.53Q23.63-30.53 25.85-29.89Q28.07-29.26 29.53-28.14Q31.00-27.03 31.71-25.50Q32.42-23.96 32.42-22.19L32.42-22.19Q32.42-19.28 30.59-17.09L30.59-17.09Q32.70-15.84 33.73-13.85Q34.77-11.86 34.77-9.32L34.77-9.32Q34.77-7.19 34.05-5.47Q33.34-3.75 31.88-2.53Q30.43-1.31 28.21-0.65Q26.00 0 22.99 0L22.99 0L4.34 0ZM10.53-18.81L23.03-18.81Q23.83-18.81 24.59-18.75L24.59-18.75Q25.90-20 25.90-21.60L25.90-21.60Q25.90-23.26 24.60-24.17Q23.30-25.08 20.80-25.08L20.80-25.08L10.53-25.08L10.53-18.81ZM10.53-5.39L23.14-5.39Q25.64-5.39 26.94-6.46Q28.24-7.54 28.24-9.49L28.24-9.49Q28.24-11.45 26.94-12.54Q25.64-13.63 23.14-13.63L23.14-13.63L10.53-13.63L10.53-5.39Z M40.93-11.52L40.93-11.52Q40.93-14.00 41.93-16.17Q42.94-18.34 44.80-19.96Q46.67-21.58 49.31-22.52Q51.96-23.46 55.26-23.46L55.26-23.46Q58.56-23.46 61.21-22.52Q63.86-21.58 65.72-19.96Q67.59-18.34 68.59-16.17Q69.60-14.00 69.60-11.52L69.60-11.52Q69.60-9.04 68.59-6.88Q67.59-4.71 65.72-3.09Q63.86-1.46 61.21-0.53Q58.56 0.41 55.26 0.41L55.26 0.41Q51.96 0.41 49.31-0.53Q46.67-1.46 44.80-3.09Q42.94-4.71 41.93-6.88Q40.93-9.04 40.93-11.52ZM47-11.52L47-11.52Q47-10.14 47.56-8.90Q48.11-7.66 49.18-6.71Q50.24-5.76 51.78-5.21Q53.31-4.65 55.26-4.65L55.26-4.65Q57.21-4.65 58.75-5.21Q60.28-5.76 61.35-6.71Q62.41-7.66 62.97-8.90Q63.52-10.14 63.52-11.52L63.52-11.52Q63.52-12.91 62.97-14.16Q62.41-15.41 61.35-16.36Q60.28-17.30 58.75-17.86Q57.21-18.42 55.26-18.42L55.26-18.42Q53.31-18.42 51.78-17.86Q50.24-17.30 49.18-16.36Q48.11-15.41 47.56-14.16Q47-12.91 47-11.52Z M78.12 0L78.12-5.31L88.88-12.70Q91.30-14.36 92.85-15.59Q94.39-16.82 95.27-17.78Q96.15-18.75 96.48-19.53Q96.81-20.31 96.81-21.09L96.81-21.09Q96.81-21.99 96.44-22.77Q96.07-23.55 95.28-24.14Q94.49-24.73 93.25-25.06Q92.01-25.39 90.29-25.39L90.29-25.39Q87.79-25.39 85.31-24.69Q82.83-23.98 80.25-22.44L80.25-22.44L77.40-27.13Q80.27-28.91 83.62-29.90Q86.97-30.90 90.66-30.90L90.66-30.90Q93.88-30.90 96.26-30.13Q98.63-29.36 100.18-28.03Q101.73-26.70 102.50-24.94Q103.26-23.18 103.26-21.21L103.26-21.21Q103.26-19.69 102.75-18.30Q102.24-16.91 100.97-15.43Q99.70-13.95 97.54-12.24Q95.39-10.53 92.11-8.36L92.11-8.36L87.65-5.43L104.37-5.43L104.37 0L78.12 0Z M113.56 0L113.56-30.53L119.75-30.53L119.75-5.43L137.50-5.43L137.50 0L113.56 0Z M143.39-11.52L143.39-11.52Q143.39-14.00 144.40-16.17Q145.40-18.34 147.27-19.96Q149.13-21.58 151.78-22.52Q154.43-23.46 157.73-23.46L157.73-23.46Q161.03-23.46 163.67-22.52Q166.32-21.58 168.19-19.96Q170.05-18.34 171.06-16.17Q172.06-14.00 172.06-11.52L172.06-11.52Q172.06-9.04 171.06-6.88Q170.05-4.71 168.19-3.09Q166.32-1.46 163.67-0.53Q161.03 0.41 157.73 0.41L157.73 0.41Q154.43 0.41 151.78-0.53Q149.13-1.46 147.27-3.09Q145.40-4.71 144.40-6.88Q143.39-9.04 143.39-11.52ZM149.46-11.52L149.46-11.52Q149.46-10.14 150.02-8.90Q150.58-7.66 151.64-6.71Q152.71-5.76 154.24-5.21Q155.77-4.65 157.73-4.65L157.73-4.65Q159.68-4.65 161.21-5.21Q162.75-5.76 163.81-6.71Q164.88-7.66 165.43-8.90Q165.99-10.14 165.99-11.52L165.99-11.52Q165.99-12.91 165.43-14.16Q164.88-15.41 163.81-16.36Q162.75-17.30 161.21-17.86Q159.68-18.42 157.73-18.42L157.73-18.42Q155.77-18.42 154.24-17.86Q152.71-17.30 151.64-16.36Q150.58-15.41 150.02-14.16Q149.46-12.91 149.46-11.52Z M177.75 0L194.67-21.68L197.60-25.25L179.26-25.25L179.26-30.53L209.12-30.53L192.03-9.06L188.98-5.27L208.16-5.27L208.16 0L177.75 0Z M238.32 0L227.40-23.07L234.10-23.07L240.09-9.20L241.66-5.31L243.22-9.20L249.21-23.07L255.91-23.07L245.00 0L238.32 0Z M260.86-7.27L260.86-7.27Q260.86-8.93 261.59-10.29Q262.31-11.66 263.75-12.65Q265.20-13.63 267.36-14.17Q269.52-14.71 272.39-14.71L272.39-14.71Q274.52-14.71 276.87-14.39Q279.22-14.08 281.72-13.44L281.72-13.44Q281.63-14.53 281.06-15.46Q280.49-16.39 279.49-17.06Q278.48-17.73 277.06-18.11Q275.65-18.48 273.85-18.48L273.85-18.48Q272.88-18.48 271.70-18.36Q270.53-18.24 269.28-18.01Q268.03-17.77 266.81-17.42Q265.59-17.07 264.54-16.58L264.54-16.58L262.78-21.33Q264.09-21.80 265.58-22.19Q267.07-22.58 268.64-22.86Q270.20-23.14 271.76-23.30Q273.32-23.46 274.79-23.46L274.79-23.46Q281.25-23.46 284.40-20.16Q287.54-16.86 287.54-10.04L287.54-10.04L287.54 0L281.76 0L281.76-2.17Q280.86-1.64 279.80-1.17Q278.73-0.70 277.48-0.35Q276.23 0 274.80 0.21Q273.36 0.41 271.76 0.41L271.76 0.41Q269.07 0.41 267.03-0.18Q264.98-0.76 263.62-1.80Q262.25-2.83 261.56-4.23Q260.86-5.63 260.86-7.27ZM266.96-7.46L266.96-7.46Q266.96-6.89 267.25-6.38Q267.54-5.86 268.19-5.46Q268.83-5.06 269.84-4.81Q270.84-4.57 272.27-4.57L272.27-4.57Q273.79-4.57 275.22-4.84Q276.64-5.12 277.88-5.57Q279.11-6.02 280.10-6.60Q281.10-7.19 281.76-7.81L281.76-7.81L281.76-8.83Q280.43-9.20 279.13-9.45Q277.84-9.71 276.65-9.85Q275.47-10 274.43-10.06Q273.38-10.12 272.60-10.12L272.60-10.12Q270.98-10.12 269.91-9.90Q268.83-9.69 268.17-9.33Q267.50-8.96 267.23-8.48Q266.96-7.99 266.96-7.46Z M302.80-1.66L302.80 9.41L297.02 9.41L297.02-23.05L302.80-23.05L302.80-20.88Q303.57-21.41 304.60-21.88Q305.64-22.34 306.83-22.70Q308.02-23.05 309.29-23.25Q310.56-23.46 311.83-23.46L311.83-23.46Q314.76-23.46 317.21-22.60Q319.66-21.74 321.42-20.18Q323.18-18.61 324.16-16.44Q325.15-14.26 325.15-11.62L325.15-11.62Q325.15-8.87 324.11-6.65Q323.08-4.43 321.25-2.86Q319.43-1.29 316.92-0.44Q314.41 0.41 311.48 0.41L311.48 0.41Q310.23 0.41 309.01 0.25Q307.79 0.10 306.66-0.18Q305.54-0.45 304.55-0.83Q303.57-1.21 302.80-1.66L302.80-1.66ZM302.80-15.23L302.80-7.25Q303.68-6.54 304.66-6.05Q305.64-5.57 306.65-5.25Q307.67-4.94 308.70-4.79Q309.74-4.65 310.71-4.65L310.71-4.65Q312.71-4.65 314.26-5.19Q315.81-5.72 316.88-6.66Q317.94-7.60 318.51-8.87Q319.07-10.14 319.07-11.62L319.07-11.62Q319.07-13.01 318.52-14.24Q317.96-15.47 316.92-16.40Q315.87-17.32 314.40-17.86Q312.92-18.40 311.09-18.40L311.09-18.40Q309.91-18.40 308.74-18.17Q307.57-17.95 306.49-17.54Q305.40-17.13 304.46-16.54Q303.51-15.96 302.80-15.23L302.80-15.23Z M331.50-11.60L331.50-11.60Q331.50-13.95 332.46-16.08Q333.42-18.22 335.21-19.86Q337.01-21.50 339.62-22.48Q342.23-23.46 345.55-23.46L345.55-23.46Q348.85-23.46 351.49-22.47Q354.14-21.48 355.99-19.77Q357.83-18.05 358.82-15.72Q359.80-13.40 359.80-10.74L359.80-10.74Q359.80-10.41 359.79-10.03Q359.79-9.65 359.75-9.34L359.75-9.34L337.95-9.34Q338.32-8.30 339.15-7.44Q339.98-6.58 341.23-5.96Q342.48-5.33 344.12-4.99Q345.76-4.65 347.75-4.65L347.75-4.65Q349.75-4.65 351.72-5.07Q353.69-5.49 355.49-6.13L355.49-6.13L357.44-1.72Q356.31-1.19 355.15-0.79Q353.98-0.39 352.72-0.13Q351.46 0.14 350.09 0.27Q348.71 0.41 347.19 0.41L347.19 0.41Q343.30 0.41 340.37-0.53Q337.44-1.46 335.47-3.09Q333.50-4.71 332.50-6.89Q331.50-9.08 331.50-11.60ZM337.95-13.85L353.67-13.85Q353.36-14.80 352.71-15.63Q352.05-16.46 351.07-17.08Q350.10-17.70 348.81-18.05Q347.52-18.40 345.98-18.40L345.98-18.40Q344.34-18.40 342.99-18.03Q341.64-17.66 340.63-17.03Q339.61-16.41 338.94-15.59Q338.26-14.77 337.95-13.85L337.95-13.85Z M366.86-4.06L370.16-9.08Q371.82-8.14 373.53-7.39Q375.24-6.64 377.08-6.12Q378.91-5.61 380.94-5.33Q382.96-5.06 385.24-5.06L385.24-5.06Q388.00-5.06 389.93-5.42Q391.86-5.78 393.08-6.42Q394.30-7.05 394.86-7.93Q395.42-8.81 395.42-9.84L395.42-9.84Q395.42-11.50 394.03-12.47Q392.64-13.44 389.75-13.44L389.75-13.44Q388.48-13.44 387.08-13.27Q385.67-13.11 384.24-12.91Q382.80-12.71 381.40-12.55Q380.01-12.38 378.78-12.38L378.78-12.38Q376.73-12.38 374.84-12.91Q372.96-13.44 371.50-14.49Q370.05-15.55 369.19-17.13Q368.33-18.71 368.33-20.82L368.33-20.82Q368.33-22.07 368.67-23.30Q369.01-24.53 369.76-25.65Q370.52-26.78 371.71-27.74Q372.90-28.71 374.59-29.41Q376.28-30.12 378.49-30.52Q380.71-30.92 383.54-30.92L383.54-30.92Q385.59-30.92 387.66-30.69Q389.73-30.47 391.70-30.06Q393.66-29.65 395.48-29.07Q397.29-28.50 398.86-27.79L398.86-27.79L396.14-22.79Q394.85-23.36 393.37-23.84Q391.88-24.32 390.26-24.67Q388.64-25.02 386.91-25.22Q385.18-25.43 383.39-25.43L383.39-25.43Q380.83-25.43 379.18-25.06Q377.53-24.69 376.55-24.11Q375.57-23.54 375.19-22.82Q374.81-22.11 374.81-21.41L374.81-21.41Q374.81-20.04 376.04-19.17Q377.27-18.30 379.79-18.30L379.79-18.30Q380.81-18.30 382.13-18.45Q383.45-18.59 384.90-18.77Q386.36-18.95 387.87-19.09Q389.38-19.24 390.81-19.24L390.81-19.24Q393.50-19.24 395.58-18.63Q397.66-18.03 399.07-16.90Q400.48-15.78 401.20-14.19Q401.92-12.60 401.92-10.63L401.92-10.63Q401.92-7.99 400.70-5.93Q399.48-3.87 397.22-2.45Q394.97-1.04 391.79-0.30Q388.60 0.43 384.70 0.43L384.70 0.43Q382.12 0.43 379.66 0.11Q377.20-0.21 374.94-0.81Q372.68-1.41 370.64-2.24Q368.60-3.07 366.86-4.06L366.86-4.06Z M413.49 0L413.49-18.71L407.93-18.71L407.93-23.05L413.49-23.05L413.49-30.21L419.27-30.21L419.27-23.05L424.84-23.05L424.84-18.71L419.27-18.71L419.27 0L413.49 0Z M430.59-11.52L430.59-11.52Q430.59-14.00 431.60-16.17Q432.60-18.34 434.47-19.96Q436.33-21.58 438.98-22.52Q441.63-23.46 444.93-23.46L444.93-23.46Q448.23-23.46 450.87-22.52Q453.52-21.58 455.38-19.96Q457.25-18.34 458.26-16.17Q459.26-14.00 459.26-11.52L459.26-11.52Q459.26-9.04 458.26-6.88Q457.25-4.71 455.38-3.09Q453.52-1.46 450.87-0.53Q448.23 0.41 444.93 0.41L444.93 0.41Q441.63 0.41 438.98-0.53Q436.33-1.46 434.47-3.09Q432.60-4.71 431.60-6.88Q430.59-9.04 430.59-11.52ZM436.66-11.52L436.66-11.52Q436.66-10.14 437.22-8.90Q437.78-7.66 438.84-6.71Q439.91-5.76 441.44-5.21Q442.97-4.65 444.93-4.65L444.93-4.65Q446.88-4.65 448.41-5.21Q449.95-5.76 451.01-6.71Q452.07-7.66 452.63-8.90Q453.19-10.14 453.19-11.52L453.19-11.52Q453.19-12.91 452.63-14.16Q452.07-15.41 451.01-16.36Q449.95-17.30 448.41-17.86Q446.88-18.42 444.93-18.42L444.93-18.42Q442.97-18.42 441.44-17.86Q439.91-17.30 438.84-16.36Q437.78-15.41 437.22-14.16Q436.66-12.91 436.66-11.52Z M467.10 0L467.10-23.05L472.88-23.05L472.88-19.73Q474.80-21.15 476.93-22.19Q479.05-23.22 481.16-23.77L481.16-23.77L482.86-18.48Q479.52-18.14 476.99-16.98Q474.46-15.82 472.88-13.71L472.88-13.71L472.88 0L467.10 0Z M488.07-11.60L488.07-11.60Q488.07-13.95 489.02-16.08Q489.98-18.22 491.78-19.86Q493.57-21.50 496.18-22.48Q498.79-23.46 502.11-23.46L502.11-23.46Q505.41-23.46 508.06-22.47Q510.70-21.48 512.55-19.77Q514.39-18.05 515.38-15.72Q516.37-13.40 516.37-10.74L516.37-10.74Q516.37-10.41 516.36-10.03Q516.35-9.65 516.31-9.34L516.31-9.34L494.51-9.34Q494.88-8.30 495.71-7.44Q496.54-6.58 497.79-5.96Q499.04-5.33 500.68-4.99Q502.32-4.65 504.32-4.65L504.32-4.65Q506.31-4.65 508.28-5.07Q510.25-5.49 512.05-6.13L512.05-6.13L514.00-1.72Q512.87-1.19 511.71-0.79Q510.55-0.39 509.29-0.13Q508.03 0.14 506.65 0.27Q505.27 0.41 503.75 0.41L503.75 0.41Q499.86 0.41 496.93-0.53Q494.00-1.46 492.03-3.09Q490.06-4.71 489.06-6.89Q488.07-9.08 488.07-11.60ZM494.51-13.85L510.23-13.85Q509.92-14.80 509.27-15.63Q508.61-16.46 507.64-17.08Q506.66-17.70 505.37-18.05Q504.08-18.40 502.54-18.40L502.54-18.40Q500.90-18.40 499.55-18.03Q498.20-17.66 497.19-17.03Q496.17-16.41 495.50-15.59Q494.82-14.77 494.51-13.85L494.51-13.85Z"/></g>
</svg>
</g></g><g filter="url(#ikYEXSHZT)"><g opacity="1" transform="rotate(0 34.52 176.6667)">
<svg width="355.4701" height="28" x="34.52" y="176.6667" version="1.1" preserveAspectRatio="none" viewBox="4.3359 -30.918 512.0313 40.3321">
  <g transform="matrix(1 0 0 1 0 0)" class="icon3"><path id="id-BEGfasMba16" d="M4.34 0L4.34-30.53L20.64-30.53Q23.63-30.53 25.85-29.89Q28.07-29.26 29.53-28.14Q31.00-27.03 31.71-25.50Q32.42-23.96 32.42-22.19L32.42-22.19Q32.42-19.28 30.59-17.09L30.59-17.09Q32.70-15.84 33.73-13.85Q34.77-11.86 34.77-9.32L34.77-9.32Q34.77-7.19 34.05-5.47Q33.34-3.75 31.88-2.53Q30.43-1.31 28.21-0.65Q26.00 0 22.99 0L22.99 0L4.34 0ZM10.53-18.81L23.03-18.81Q23.83-18.81 24.59-18.75L24.59-18.75Q25.90-20 25.90-21.60L25.90-21.60Q25.90-23.26 24.60-24.17Q23.30-25.08 20.80-25.08L20.80-25.08L10.53-25.08L10.53-18.81ZM10.53-5.39L23.14-5.39Q25.64-5.39 26.94-6.46Q28.24-7.54 28.24-9.49L28.24-9.49Q28.24-11.45 26.94-12.54Q25.64-13.63 23.14-13.63L23.14-13.63L10.53-13.63L10.53-5.39Z M40.93-11.52L40.93-11.52Q40.93-14.00 41.93-16.17Q42.94-18.34 44.80-19.96Q46.67-21.58 49.31-22.52Q51.96-23.46 55.26-23.46L55.26-23.46Q58.56-23.46 61.21-22.52Q63.86-21.58 65.72-19.96Q67.59-18.34 68.59-16.17Q69.60-14.00 69.60-11.52L69.60-11.52Q69.60-9.04 68.59-6.88Q67.59-4.71 65.72-3.09Q63.86-1.46 61.21-0.53Q58.56 0.41 55.26 0.41L55.26 0.41Q51.96 0.41 49.31-0.53Q46.67-1.46 44.80-3.09Q42.94-4.71 41.93-6.88Q40.93-9.04 40.93-11.52ZM47-11.52L47-11.52Q47-10.14 47.56-8.90Q48.11-7.66 49.18-6.71Q50.24-5.76 51.78-5.21Q53.31-4.65 55.26-4.65L55.26-4.65Q57.21-4.65 58.75-5.21Q60.28-5.76 61.35-6.71Q62.41-7.66 62.97-8.90Q63.52-10.14 63.52-11.52L63.52-11.52Q63.52-12.91 62.97-14.16Q62.41-15.41 61.35-16.36Q60.28-17.30 58.75-17.86Q57.21-18.42 55.26-18.42L55.26-18.42Q53.31-18.42 51.78-17.86Q50.24-17.30 49.18-16.36Q48.11-15.41 47.56-14.16Q47-12.91 47-11.52Z M78.12 0L78.12-5.31L88.88-12.70Q91.30-14.36 92.85-15.59Q94.39-16.82 95.27-17.78Q96.15-18.75 96.48-19.53Q96.81-20.31 96.81-21.09L96.81-21.09Q96.81-21.99 96.44-22.77Q96.07-23.55 95.28-24.14Q94.49-24.73 93.25-25.06Q92.01-25.39 90.29-25.39L90.29-25.39Q87.79-25.39 85.31-24.69Q82.83-23.98 80.25-22.44L80.25-22.44L77.40-27.13Q80.27-28.91 83.62-29.90Q86.97-30.90 90.66-30.90L90.66-30.90Q93.88-30.90 96.26-30.13Q98.63-29.36 100.18-28.03Q101.73-26.70 102.50-24.94Q103.26-23.18 103.26-21.21L103.26-21.21Q103.26-19.69 102.75-18.30Q102.24-16.91 100.97-15.43Q99.70-13.95 97.54-12.24Q95.39-10.53 92.11-8.36L92.11-8.36L87.65-5.43L104.37-5.43L104.37 0L78.12 0Z M113.56 0L113.56-30.53L119.75-30.53L119.75-5.43L137.50-5.43L137.50 0L113.56 0Z M143.39-11.52L143.39-11.52Q143.39-14.00 144.40-16.17Q145.40-18.34 147.27-19.96Q149.13-21.58 151.78-22.52Q154.43-23.46 157.73-23.46L157.73-23.46Q161.03-23.46 163.67-22.52Q166.32-21.58 168.19-19.96Q170.05-18.34 171.06-16.17Q172.06-14.00 172.06-11.52L172.06-11.52Q172.06-9.04 171.06-6.88Q170.05-4.71 168.19-3.09Q166.32-1.46 163.67-0.53Q161.03 0.41 157.73 0.41L157.73 0.41Q154.43 0.41 151.78-0.53Q149.13-1.46 147.27-3.09Q145.40-4.71 144.40-6.88Q143.39-9.04 143.39-11.52ZM149.46-11.52L149.46-11.52Q149.46-10.14 150.02-8.90Q150.58-7.66 151.64-6.71Q152.71-5.76 154.24-5.21Q155.77-4.65 157.73-4.65L157.73-4.65Q159.68-4.65 161.21-5.21Q162.75-5.76 163.81-6.71Q164.88-7.66 165.43-8.90Q165.99-10.14 165.99-11.52L165.99-11.52Q165.99-12.91 165.43-14.16Q164.88-15.41 163.81-16.36Q162.75-17.30 161.21-17.86Q159.68-18.42 157.73-18.42L157.73-18.42Q155.77-18.42 154.24-17.86Q152.71-17.30 151.64-16.36Q150.58-15.41 150.02-14.16Q149.46-12.91 149.46-11.52Z M177.75 0L194.67-21.68L197.60-25.25L179.26-25.25L179.26-30.53L209.12-30.53L192.03-9.06L188.98-5.27L208.16-5.27L208.16 0L177.75 0Z M238.32 0L227.40-23.07L234.10-23.07L240.09-9.20L241.66-5.31L243.22-9.20L249.21-23.07L255.91-23.07L245.00 0L238.32 0Z M260.86-7.27L260.86-7.27Q260.86-8.93 261.59-10.29Q262.31-11.66 263.75-12.65Q265.20-13.63 267.36-14.17Q269.52-14.71 272.39-14.71L272.39-14.71Q274.52-14.71 276.87-14.39Q279.22-14.08 281.72-13.44L281.72-13.44Q281.63-14.53 281.06-15.46Q280.49-16.39 279.49-17.06Q278.48-17.73 277.06-18.11Q275.65-18.48 273.85-18.48L273.85-18.48Q272.88-18.48 271.70-18.36Q270.53-18.24 269.28-18.01Q268.03-17.77 266.81-17.42Q265.59-17.07 264.54-16.58L264.54-16.58L262.78-21.33Q264.09-21.80 265.58-22.19Q267.07-22.58 268.64-22.86Q270.20-23.14 271.76-23.30Q273.32-23.46 274.79-23.46L274.79-23.46Q281.25-23.46 284.40-20.16Q287.54-16.86 287.54-10.04L287.54-10.04L287.54 0L281.76 0L281.76-2.17Q280.86-1.64 279.80-1.17Q278.73-0.70 277.48-0.35Q276.23 0 274.80 0.21Q273.36 0.41 271.76 0.41L271.76 0.41Q269.07 0.41 267.03-0.18Q264.98-0.76 263.62-1.80Q262.25-2.83 261.56-4.23Q260.86-5.63 260.86-7.27ZM266.96-7.46L266.96-7.46Q266.96-6.89 267.25-6.38Q267.54-5.86 268.19-5.46Q268.83-5.06 269.84-4.81Q270.84-4.57 272.27-4.57L272.27-4.57Q273.79-4.57 275.22-4.84Q276.64-5.12 277.88-5.57Q279.11-6.02 280.10-6.60Q281.10-7.19 281.76-7.81L281.76-7.81L281.76-8.83Q280.43-9.20 279.13-9.45Q277.84-9.71 276.65-9.85Q275.47-10 274.43-10.06Q273.38-10.12 272.60-10.12L272.60-10.12Q270.98-10.12 269.91-9.90Q268.83-9.69 268.17-9.33Q267.50-8.96 267.23-8.48Q266.96-7.99 266.96-7.46Z M302.80-1.66L302.80 9.41L297.02 9.41L297.02-23.05L302.80-23.05L302.80-20.88Q303.57-21.41 304.60-21.88Q305.64-22.34 306.83-22.70Q308.02-23.05 309.29-23.25Q310.56-23.46 311.83-23.46L311.83-23.46Q314.76-23.46 317.21-22.60Q319.66-21.74 321.42-20.18Q323.18-18.61 324.16-16.44Q325.15-14.26 325.15-11.62L325.15-11.62Q325.15-8.87 324.11-6.65Q323.08-4.43 321.25-2.86Q319.43-1.29 316.92-0.44Q314.41 0.41 311.48 0.41L311.48 0.41Q310.23 0.41 309.01 0.25Q307.79 0.10 306.66-0.18Q305.54-0.45 304.55-0.83Q303.57-1.21 302.80-1.66L302.80-1.66ZM302.80-15.23L302.80-7.25Q303.68-6.54 304.66-6.05Q305.64-5.57 306.65-5.25Q307.67-4.94 308.70-4.79Q309.74-4.65 310.71-4.65L310.71-4.65Q312.71-4.65 314.26-5.19Q315.81-5.72 316.88-6.66Q317.94-7.60 318.51-8.87Q319.07-10.14 319.07-11.62L319.07-11.62Q319.07-13.01 318.52-14.24Q317.96-15.47 316.92-16.40Q315.87-17.32 314.40-17.86Q312.92-18.40 311.09-18.40L311.09-18.40Q309.91-18.40 308.74-18.17Q307.57-17.95 306.49-17.54Q305.40-17.13 304.46-16.54Q303.51-15.96 302.80-15.23L302.80-15.23Z M331.50-11.60L331.50-11.60Q331.50-13.95 332.46-16.08Q333.42-18.22 335.21-19.86Q337.01-21.50 339.62-22.48Q342.23-23.46 345.55-23.46L345.55-23.46Q348.85-23.46 351.49-22.47Q354.14-21.48 355.99-19.77Q357.83-18.05 358.82-15.72Q359.80-13.40 359.80-10.74L359.80-10.74Q359.80-10.41 359.79-10.03Q359.79-9.65 359.75-9.34L359.75-9.34L337.95-9.34Q338.32-8.30 339.15-7.44Q339.98-6.58 341.23-5.96Q342.48-5.33 344.12-4.99Q345.76-4.65 347.75-4.65L347.75-4.65Q349.75-4.65 351.72-5.07Q353.69-5.49 355.49-6.13L355.49-6.13L357.44-1.72Q356.31-1.19 355.15-0.79Q353.98-0.39 352.72-0.13Q351.46 0.14 350.09 0.27Q348.71 0.41 347.19 0.41L347.19 0.41Q343.30 0.41 340.37-0.53Q337.44-1.46 335.47-3.09Q333.50-4.71 332.50-6.89Q331.50-9.08 331.50-11.60ZM337.95-13.85L353.67-13.85Q353.36-14.80 352.71-15.63Q352.05-16.46 351.07-17.08Q350.10-17.70 348.81-18.05Q347.52-18.40 345.98-18.40L345.98-18.40Q344.34-18.40 342.99-18.03Q341.64-17.66 340.63-17.03Q339.61-16.41 338.94-15.59Q338.26-14.77 337.95-13.85L337.95-13.85Z M366.86-4.06L370.16-9.08Q371.82-8.14 373.53-7.39Q375.24-6.64 377.08-6.12Q378.91-5.61 380.94-5.33Q382.96-5.06 385.24-5.06L385.24-5.06Q388.00-5.06 389.93-5.42Q391.86-5.78 393.08-6.42Q394.30-7.05 394.86-7.93Q395.42-8.81 395.42-9.84L395.42-9.84Q395.42-11.50 394.03-12.47Q392.64-13.44 389.75-13.44L389.75-13.44Q388.48-13.44 387.08-13.27Q385.67-13.11 384.24-12.91Q382.80-12.71 381.40-12.55Q380.01-12.38 378.78-12.38L378.78-12.38Q376.73-12.38 374.84-12.91Q372.96-13.44 371.50-14.49Q370.05-15.55 369.19-17.13Q368.33-18.71 368.33-20.82L368.33-20.82Q368.33-22.07 368.67-23.30Q369.01-24.53 369.76-25.65Q370.52-26.78 371.71-27.74Q372.90-28.71 374.59-29.41Q376.28-30.12 378.49-30.52Q380.71-30.92 383.54-30.92L383.54-30.92Q385.59-30.92 387.66-30.69Q389.73-30.47 391.70-30.06Q393.66-29.65 395.48-29.07Q397.29-28.50 398.86-27.79L398.86-27.79L396.14-22.79Q394.85-23.36 393.37-23.84Q391.88-24.32 390.26-24.67Q388.64-25.02 386.91-25.22Q385.18-25.43 383.39-25.43L383.39-25.43Q380.83-25.43 379.18-25.06Q377.53-24.69 376.55-24.11Q375.57-23.54 375.19-22.82Q374.81-22.11 374.81-21.41L374.81-21.41Q374.81-20.04 376.04-19.17Q377.27-18.30 379.79-18.30L379.79-18.30Q380.81-18.30 382.13-18.45Q383.45-18.59 384.90-18.77Q386.36-18.95 387.87-19.09Q389.38-19.24 390.81-19.24L390.81-19.24Q393.50-19.24 395.58-18.63Q397.66-18.03 399.07-16.90Q400.48-15.78 401.20-14.19Q401.92-12.60 401.92-10.63L401.92-10.63Q401.92-7.99 400.70-5.93Q399.48-3.87 397.22-2.45Q394.97-1.04 391.79-0.30Q388.60 0.43 384.70 0.43L384.70 0.43Q382.12 0.43 379.66 0.11Q377.20-0.21 374.94-0.81Q372.68-1.41 370.64-2.24Q368.60-3.07 366.86-4.06L366.86-4.06Z M413.49 0L413.49-18.71L407.93-18.71L407.93-23.05L413.49-23.05L413.49-30.21L419.27-30.21L419.27-23.05L424.84-23.05L424.84-18.71L419.27-18.71L419.27 0L413.49 0Z M430.59-11.52L430.59-11.52Q430.59-14.00 431.60-16.17Q432.60-18.34 434.47-19.96Q436.33-21.58 438.98-22.52Q441.63-23.46 444.93-23.46L444.93-23.46Q448.23-23.46 450.87-22.52Q453.52-21.58 455.38-19.96Q457.25-18.34 458.26-16.17Q459.26-14.00 459.26-11.52L459.26-11.52Q459.26-9.04 458.26-6.88Q457.25-4.71 455.38-3.09Q453.52-1.46 450.87-0.53Q448.23 0.41 444.93 0.41L444.93 0.41Q441.63 0.41 438.98-0.53Q436.33-1.46 434.47-3.09Q432.60-4.71 431.60-6.88Q430.59-9.04 430.59-11.52ZM436.66-11.52L436.66-11.52Q436.66-10.14 437.22-8.90Q437.78-7.66 438.84-6.71Q439.91-5.76 441.44-5.21Q442.97-4.65 444.93-4.65L444.93-4.65Q446.88-4.65 448.41-5.21Q449.95-5.76 451.01-6.71Q452.07-7.66 452.63-8.90Q453.19-10.14 453.19-11.52L453.19-11.52Q453.19-12.91 452.63-14.16Q452.07-15.41 451.01-16.36Q449.95-17.30 448.41-17.86Q446.88-18.42 444.93-18.42L444.93-18.42Q442.97-18.42 441.44-17.86Q439.91-17.30 438.84-16.36Q437.78-15.41 437.22-14.16Q436.66-12.91 436.66-11.52Z M467.10 0L467.10-23.05L472.88-23.05L472.88-19.73Q474.80-21.15 476.93-22.19Q479.05-23.22 481.16-23.77L481.16-23.77L482.86-18.48Q479.52-18.14 476.99-16.98Q474.46-15.82 472.88-13.71L472.88-13.71L472.88 0L467.10 0Z M488.07-11.60L488.07-11.60Q488.07-13.95 489.02-16.08Q489.98-18.22 491.78-19.86Q493.57-21.50 496.18-22.48Q498.79-23.46 502.11-23.46L502.11-23.46Q505.41-23.46 508.06-22.47Q510.70-21.48 512.55-19.77Q514.39-18.05 515.38-15.72Q516.37-13.40 516.37-10.74L516.37-10.74Q516.37-10.41 516.36-10.03Q516.35-9.65 516.31-9.34L516.31-9.34L494.51-9.34Q494.88-8.30 495.71-7.44Q496.54-6.58 497.79-5.96Q499.04-5.33 500.68-4.99Q502.32-4.65 504.32-4.65L504.32-4.65Q506.31-4.65 508.28-5.07Q510.25-5.49 512.05-6.13L512.05-6.13L514.00-1.72Q512.87-1.19 511.71-0.79Q510.55-0.39 509.29-0.13Q508.03 0.14 506.65 0.27Q505.27 0.41 503.75 0.41L503.75 0.41Q499.86 0.41 496.93-0.53Q494.00-1.46 492.03-3.09Q490.06-4.71 489.06-6.89Q488.07-9.08 488.07-11.60ZM494.51-13.85L510.23-13.85Q509.92-14.80 509.27-15.63Q508.61-16.46 507.64-17.08Q506.66-17.70 505.37-18.05Q504.08-18.40 502.54-18.40L502.54-18.40Q500.90-18.40 499.55-18.03Q498.20-17.66 497.19-17.03Q496.17-16.41 495.50-15.59Q494.82-14.77 494.51-13.85L494.51-13.85Z"/></g>
</svg>
</g></g><g filter="url(#tUk6sjh6M)"><g opacity="1" transform="rotate(0 34.52 172.6667)">
<svg width="355.4701" height="28" x="34.52" y="172.6667" version="1.1" preserveAspectRatio="none" viewBox="4.3359 -30.918 512.0313 40.3321">
  <g transform="matrix(1 0 0 1 0 0)" class="companyName"><path id="id-D6z1nYkh16" d="M4.34 0L4.34-30.53L20.64-30.53Q23.63-30.53 25.85-29.89Q28.07-29.26 29.53-28.14Q31.00-27.03 31.71-25.50Q32.42-23.96 32.42-22.19L32.42-22.19Q32.42-19.28 30.59-17.09L30.59-17.09Q32.70-15.84 33.73-13.85Q34.77-11.86 34.77-9.32L34.77-9.32Q34.77-7.19 34.05-5.47Q33.34-3.75 31.88-2.53Q30.43-1.31 28.21-0.65Q26.00 0 22.99 0L22.99 0L4.34 0ZM10.53-18.81L23.03-18.81Q23.83-18.81 24.59-18.75L24.59-18.75Q25.90-20 25.90-21.60L25.90-21.60Q25.90-23.26 24.60-24.17Q23.30-25.08 20.80-25.08L20.80-25.08L10.53-25.08L10.53-18.81ZM10.53-5.39L23.14-5.39Q25.64-5.39 26.94-6.46Q28.24-7.54 28.24-9.49L28.24-9.49Q28.24-11.45 26.94-12.54Q25.64-13.63 23.14-13.63L23.14-13.63L10.53-13.63L10.53-5.39Z M40.93-11.52L40.93-11.52Q40.93-14.00 41.93-16.17Q42.94-18.34 44.80-19.96Q46.67-21.58 49.31-22.52Q51.96-23.46 55.26-23.46L55.26-23.46Q58.56-23.46 61.21-22.52Q63.86-21.58 65.72-19.96Q67.59-18.34 68.59-16.17Q69.60-14.00 69.60-11.52L69.60-11.52Q69.60-9.04 68.59-6.88Q67.59-4.71 65.72-3.09Q63.86-1.46 61.21-0.53Q58.56 0.41 55.26 0.41L55.26 0.41Q51.96 0.41 49.31-0.53Q46.67-1.46 44.80-3.09Q42.94-4.71 41.93-6.88Q40.93-9.04 40.93-11.52ZM47-11.52L47-11.52Q47-10.14 47.56-8.90Q48.11-7.66 49.18-6.71Q50.24-5.76 51.78-5.21Q53.31-4.65 55.26-4.65L55.26-4.65Q57.21-4.65 58.75-5.21Q60.28-5.76 61.35-6.71Q62.41-7.66 62.97-8.90Q63.52-10.14 63.52-11.52L63.52-11.52Q63.52-12.91 62.97-14.16Q62.41-15.41 61.35-16.36Q60.28-17.30 58.75-17.86Q57.21-18.42 55.26-18.42L55.26-18.42Q53.31-18.42 51.78-17.86Q50.24-17.30 49.18-16.36Q48.11-15.41 47.56-14.16Q47-12.91 47-11.52Z M78.12 0L78.12-5.31L88.88-12.70Q91.30-14.36 92.85-15.59Q94.39-16.82 95.27-17.78Q96.15-18.75 96.48-19.53Q96.81-20.31 96.81-21.09L96.81-21.09Q96.81-21.99 96.44-22.77Q96.07-23.55 95.28-24.14Q94.49-24.73 93.25-25.06Q92.01-25.39 90.29-25.39L90.29-25.39Q87.79-25.39 85.31-24.69Q82.83-23.98 80.25-22.44L80.25-22.44L77.40-27.13Q80.27-28.91 83.62-29.90Q86.97-30.90 90.66-30.90L90.66-30.90Q93.88-30.90 96.26-30.13Q98.63-29.36 100.18-28.03Q101.73-26.70 102.50-24.94Q103.26-23.18 103.26-21.21L103.26-21.21Q103.26-19.69 102.75-18.30Q102.24-16.91 100.97-15.43Q99.70-13.95 97.54-12.24Q95.39-10.53 92.11-8.36L92.11-8.36L87.65-5.43L104.37-5.43L104.37 0L78.12 0Z M113.56 0L113.56-30.53L119.75-30.53L119.75-5.43L137.50-5.43L137.50 0L113.56 0Z M143.39-11.52L143.39-11.52Q143.39-14.00 144.40-16.17Q145.40-18.34 147.27-19.96Q149.13-21.58 151.78-22.52Q154.43-23.46 157.73-23.46L157.73-23.46Q161.03-23.46 163.67-22.52Q166.32-21.58 168.19-19.96Q170.05-18.34 171.06-16.17Q172.06-14.00 172.06-11.52L172.06-11.52Q172.06-9.04 171.06-6.88Q170.05-4.71 168.19-3.09Q166.32-1.46 163.67-0.53Q161.03 0.41 157.73 0.41L157.73 0.41Q154.43 0.41 151.78-0.53Q149.13-1.46 147.27-3.09Q145.40-4.71 144.40-6.88Q143.39-9.04 143.39-11.52ZM149.46-11.52L149.46-11.52Q149.46-10.14 150.02-8.90Q150.58-7.66 151.64-6.71Q152.71-5.76 154.24-5.21Q155.77-4.65 157.73-4.65L157.73-4.65Q159.68-4.65 161.21-5.21Q162.75-5.76 163.81-6.71Q164.88-7.66 165.43-8.90Q165.99-10.14 165.99-11.52L165.99-11.52Q165.99-12.91 165.43-14.16Q164.88-15.41 163.81-16.36Q162.75-17.30 161.21-17.86Q159.68-18.42 157.73-18.42L157.73-18.42Q155.77-18.42 154.24-17.86Q152.71-17.30 151.64-16.36Q150.58-15.41 150.02-14.16Q149.46-12.91 149.46-11.52Z M177.75 0L194.67-21.68L197.60-25.25L179.26-25.25L179.26-30.53L209.12-30.53L192.03-9.06L188.98-5.27L208.16-5.27L208.16 0L177.75 0Z M238.32 0L227.40-23.07L234.10-23.07L240.09-9.20L241.66-5.31L243.22-9.20L249.21-23.07L255.91-23.07L245.00 0L238.32 0Z M260.86-7.27L260.86-7.27Q260.86-8.93 261.59-10.29Q262.31-11.66 263.75-12.65Q265.20-13.63 267.36-14.17Q269.52-14.71 272.39-14.71L272.39-14.71Q274.52-14.71 276.87-14.39Q279.22-14.08 281.72-13.44L281.72-13.44Q281.63-14.53 281.06-15.46Q280.49-16.39 279.49-17.06Q278.48-17.73 277.06-18.11Q275.65-18.48 273.85-18.48L273.85-18.48Q272.88-18.48 271.70-18.36Q270.53-18.24 269.28-18.01Q268.03-17.77 266.81-17.42Q265.59-17.07 264.54-16.58L264.54-16.58L262.78-21.33Q264.09-21.80 265.58-22.19Q267.07-22.58 268.64-22.86Q270.20-23.14 271.76-23.30Q273.32-23.46 274.79-23.46L274.79-23.46Q281.25-23.46 284.40-20.16Q287.54-16.86 287.54-10.04L287.54-10.04L287.54 0L281.76 0L281.76-2.17Q280.86-1.64 279.80-1.17Q278.73-0.70 277.48-0.35Q276.23 0 274.80 0.21Q273.36 0.41 271.76 0.41L271.76 0.41Q269.07 0.41 267.03-0.18Q264.98-0.76 263.62-1.80Q262.25-2.83 261.56-4.23Q260.86-5.63 260.86-7.27ZM266.96-7.46L266.96-7.46Q266.96-6.89 267.25-6.38Q267.54-5.86 268.19-5.46Q268.83-5.06 269.84-4.81Q270.84-4.57 272.27-4.57L272.27-4.57Q273.79-4.57 275.22-4.84Q276.64-5.12 277.88-5.57Q279.11-6.02 280.10-6.60Q281.10-7.19 281.76-7.81L281.76-7.81L281.76-8.83Q280.43-9.20 279.13-9.45Q277.84-9.71 276.65-9.85Q275.47-10 274.43-10.06Q273.38-10.12 272.60-10.12L272.60-10.12Q270.98-10.12 269.91-9.90Q268.83-9.69 268.17-9.33Q267.50-8.96 267.23-8.48Q266.96-7.99 266.96-7.46Z M302.80-1.66L302.80 9.41L297.02 9.41L297.02-23.05L302.80-23.05L302.80-20.88Q303.57-21.41 304.60-21.88Q305.64-22.34 306.83-22.70Q308.02-23.05 309.29-23.25Q310.56-23.46 311.83-23.46L311.83-23.46Q314.76-23.46 317.21-22.60Q319.66-21.74 321.42-20.18Q323.18-18.61 324.16-16.44Q325.15-14.26 325.15-11.62L325.15-11.62Q325.15-8.87 324.11-6.65Q323.08-4.43 321.25-2.86Q319.43-1.29 316.92-0.44Q314.41 0.41 311.48 0.41L311.48 0.41Q310.23 0.41 309.01 0.25Q307.79 0.10 306.66-0.18Q305.54-0.45 304.55-0.83Q303.57-1.21 302.80-1.66L302.80-1.66ZM302.80-15.23L302.80-7.25Q303.68-6.54 304.66-6.05Q305.64-5.57 306.65-5.25Q307.67-4.94 308.70-4.79Q309.74-4.65 310.71-4.65L310.71-4.65Q312.71-4.65 314.26-5.19Q315.81-5.72 316.88-6.66Q317.94-7.60 318.51-8.87Q319.07-10.14 319.07-11.62L319.07-11.62Q319.07-13.01 318.52-14.24Q317.96-15.47 316.92-16.40Q315.87-17.32 314.40-17.86Q312.92-18.40 311.09-18.40L311.09-18.40Q309.91-18.40 308.74-18.17Q307.57-17.95 306.49-17.54Q305.40-17.13 304.46-16.54Q303.51-15.96 302.80-15.23L302.80-15.23Z M331.50-11.60L331.50-11.60Q331.50-13.95 332.46-16.08Q333.42-18.22 335.21-19.86Q337.01-21.50 339.62-22.48Q342.23-23.46 345.55-23.46L345.55-23.46Q348.85-23.46 351.49-22.47Q354.14-21.48 355.99-19.77Q357.83-18.05 358.82-15.72Q359.80-13.40 359.80-10.74L359.80-10.74Q359.80-10.41 359.79-10.03Q359.79-9.65 359.75-9.34L359.75-9.34L337.95-9.34Q338.32-8.30 339.15-7.44Q339.98-6.58 341.23-5.96Q342.48-5.33 344.12-4.99Q345.76-4.65 347.75-4.65L347.75-4.65Q349.75-4.65 351.72-5.07Q353.69-5.49 355.49-6.13L355.49-6.13L357.44-1.72Q356.31-1.19 355.15-0.79Q353.98-0.39 352.72-0.13Q351.46 0.14 350.09 0.27Q348.71 0.41 347.19 0.41L347.19 0.41Q343.30 0.41 340.37-0.53Q337.44-1.46 335.47-3.09Q333.50-4.71 332.50-6.89Q331.50-9.08 331.50-11.60ZM337.95-13.85L353.67-13.85Q353.36-14.80 352.71-15.63Q352.05-16.46 351.07-17.08Q350.10-17.70 348.81-18.05Q347.52-18.40 345.98-18.40L345.98-18.40Q344.34-18.40 342.99-18.03Q341.64-17.66 340.63-17.03Q339.61-16.41 338.94-15.59Q338.26-14.77 337.95-13.85L337.95-13.85Z M366.86-4.06L370.16-9.08Q371.82-8.14 373.53-7.39Q375.24-6.64 377.08-6.12Q378.91-5.61 380.94-5.33Q382.96-5.06 385.24-5.06L385.24-5.06Q388.00-5.06 389.93-5.42Q391.86-5.78 393.08-6.42Q394.30-7.05 394.86-7.93Q395.42-8.81 395.42-9.84L395.42-9.84Q395.42-11.50 394.03-12.47Q392.64-13.44 389.75-13.44L389.75-13.44Q388.48-13.44 387.08-13.27Q385.67-13.11 384.24-12.91Q382.80-12.71 381.40-12.55Q380.01-12.38 378.78-12.38L378.78-12.38Q376.73-12.38 374.84-12.91Q372.96-13.44 371.50-14.49Q370.05-15.55 369.19-17.13Q368.33-18.71 368.33-20.82L368.33-20.82Q368.33-22.07 368.67-23.30Q369.01-24.53 369.76-25.65Q370.52-26.78 371.71-27.74Q372.90-28.71 374.59-29.41Q376.28-30.12 378.49-30.52Q380.71-30.92 383.54-30.92L383.54-30.92Q385.59-30.92 387.66-30.69Q389.73-30.47 391.70-30.06Q393.66-29.65 395.48-29.07Q397.29-28.50 398.86-27.79L398.86-27.79L396.14-22.79Q394.85-23.36 393.37-23.84Q391.88-24.32 390.26-24.67Q388.64-25.02 386.91-25.22Q385.18-25.43 383.39-25.43L383.39-25.43Q380.83-25.43 379.18-25.06Q377.53-24.69 376.55-24.11Q375.57-23.54 375.19-22.82Q374.81-22.11 374.81-21.41L374.81-21.41Q374.81-20.04 376.04-19.17Q377.27-18.30 379.79-18.30L379.79-18.30Q380.81-18.30 382.13-18.45Q383.45-18.59 384.90-18.77Q386.36-18.95 387.87-19.09Q389.38-19.24 390.81-19.24L390.81-19.24Q393.50-19.24 395.58-18.63Q397.66-18.03 399.07-16.90Q400.48-15.78 401.20-14.19Q401.92-12.60 401.92-10.63L401.92-10.63Q401.92-7.99 400.70-5.93Q399.48-3.87 397.22-2.45Q394.97-1.04 391.79-0.30Q388.60 0.43 384.70 0.43L384.70 0.43Q382.12 0.43 379.66 0.11Q377.20-0.21 374.94-0.81Q372.68-1.41 370.64-2.24Q368.60-3.07 366.86-4.06L366.86-4.06Z M413.49 0L413.49-18.71L407.93-18.71L407.93-23.05L413.49-23.05L413.49-30.21L419.27-30.21L419.27-23.05L424.84-23.05L424.84-18.71L419.27-18.71L419.27 0L413.49 0Z M430.59-11.52L430.59-11.52Q430.59-14.00 431.60-16.17Q432.60-18.34 434.47-19.96Q436.33-21.58 438.98-22.52Q441.63-23.46 444.93-23.46L444.93-23.46Q448.23-23.46 450.87-22.52Q453.52-21.58 455.38-19.96Q457.25-18.34 458.26-16.17Q459.26-14.00 459.26-11.52L459.26-11.52Q459.26-9.04 458.26-6.88Q457.25-4.71 455.38-3.09Q453.52-1.46 450.87-0.53Q448.23 0.41 444.93 0.41L444.93 0.41Q441.63 0.41 438.98-0.53Q436.33-1.46 434.47-3.09Q432.60-4.71 431.60-6.88Q430.59-9.04 430.59-11.52ZM436.66-11.52L436.66-11.52Q436.66-10.14 437.22-8.90Q437.78-7.66 438.84-6.71Q439.91-5.76 441.44-5.21Q442.97-4.65 444.93-4.65L444.93-4.65Q446.88-4.65 448.41-5.21Q449.95-5.76 451.01-6.71Q452.07-7.66 452.63-8.90Q453.19-10.14 453.19-11.52L453.19-11.52Q453.19-12.91 452.63-14.16Q452.07-15.41 451.01-16.36Q449.95-17.30 448.41-17.86Q446.88-18.42 444.93-18.42L444.93-18.42Q442.97-18.42 441.44-17.86Q439.91-17.30 438.84-16.36Q437.78-15.41 437.22-14.16Q436.66-12.91 436.66-11.52Z M467.10 0L467.10-23.05L472.88-23.05L472.88-19.73Q474.80-21.15 476.93-22.19Q479.05-23.22 481.16-23.77L481.16-23.77L482.86-18.48Q479.52-18.14 476.99-16.98Q474.46-15.82 472.88-13.71L472.88-13.71L472.88 0L467.10 0Z M488.07-11.60L488.07-11.60Q488.07-13.95 489.02-16.08Q489.98-18.22 491.78-19.86Q493.57-21.50 496.18-22.48Q498.79-23.46 502.11-23.46L502.11-23.46Q505.41-23.46 508.06-22.47Q510.70-21.48 512.55-19.77Q514.39-18.05 515.38-15.72Q516.37-13.40 516.37-10.74L516.37-10.74Q516.37-10.41 516.36-10.03Q516.35-9.65 516.31-9.34L516.31-9.34L494.51-9.34Q494.88-8.30 495.71-7.44Q496.54-6.58 497.79-5.96Q499.04-5.33 500.68-4.99Q502.32-4.65 504.32-4.65L504.32-4.65Q506.31-4.65 508.28-5.07Q510.25-5.49 512.05-6.13L512.05-6.13L514.00-1.72Q512.87-1.19 511.71-0.79Q510.55-0.39 509.29-0.13Q508.03 0.14 506.65 0.27Q505.27 0.41 503.75 0.41L503.75 0.41Q499.86 0.41 496.93-0.53Q494.00-1.46 492.03-3.09Q490.06-4.71 489.06-6.89Q488.07-9.08 488.07-11.60ZM494.51-13.85L510.23-13.85Q509.92-14.80 509.27-15.63Q508.61-16.46 507.64-17.08Q506.66-17.70 505.37-18.05Q504.08-18.40 502.54-18.40L502.54-18.40Q500.90-18.40 499.55-18.03Q498.20-17.66 497.19-17.03Q496.17-16.41 495.50-15.59Q494.82-14.77 494.51-13.85L494.51-13.85Z"/></g>
</svg>
</g></g></svg></svg>